<svg xmlns="http://www.w3.org/2000/svg" xmlns:xlink="http://www.w3.org/1999/xlink" viewBox="0 0 512 512"><defs><style>.cls-1{fill:url(#Градієнт_без_назви_24);}.cls-2{fill:#fff;}</style><linearGradient id="Градієнт_без_назви_24" y1="20527.89" x2="512" y2="20527.89" gradientTransform="translate(0 -20271.89)" gradientUnits="userSpaceOnUse"><stop offset="0" stop-color="#3e5288"/><stop offset="0.23" stop-color="#3e5288"/><stop offset="0.51" stop-color="#3e5288"/><stop offset="0.78" stop-color="#3e5288"/><stop offset="1" stop-color="#3e5288"/></linearGradient></defs><g id="Шар_2" data-name="Шар 2"><g id="Шар_1-2" data-name="Шар 1"><path class="cls-1" d="M512,256c0,141.39-114.61,256-256,256S0,397.39,0,256,114.61,0,256,0,512,114.61,512,256Z"/><path class="cls-2" d="M432.08,356.17a15,15,0,1,0-29.37,6.11,13.08,13.08,0,0,1-2.65,11,12.7,12.7,0,0,1-10,4.75H121.93a12.7,12.7,0,0,1-10-4.75,13.08,13.08,0,0,1-2.65-11c14.13-67.89,74.05-117.48,143.21-119.1,1.16,0,2.33.07,3.5.07s2.2,0,3.29-.06a149.74,149.74,0,0,1,121.28,66.47A15,15,0,1,0,405.48,293a179.77,179.77,0,0,0-90.94-70,94.63,94.63,0,1,0-117,0A179.76,179.76,0,0,0,79.92,356.17a43,43,0,0,0,42,51.83H390.07a43,43,0,0,0,42-51.83ZM191.37,148.63a64.63,64.63,0,1,1,67.43,64.55c-.94,0-1.87,0-2.8,0l-3.15,0A64.71,64.71,0,0,1,191.37,148.63Z"/><path class="cls-2" d="M88.66,392.18A42.74,42.74,0,0,0,121.93,408H390.07a43,43,0,0,0,42-51.83A179.76,179.76,0,0,0,314.51,223a94.63,94.63,0,1,0-117,0,179.77,179.77,0,0,0-90.94,70,15,15,0,0,0,24.91,16.71,149.74,149.74,0,0,1,121.28-66.47c1.09,0,2.19.06,3.29.06s2.34,0,3.5-.07c69.16,1.62,129.08,51.21,143.21,119.1a13.08,13.08,0,0,1-2.65,11,12.7,12.7,0,0,1-10,4.75H121.93a12.7,12.7,0,0,1-10-4.75,13.08,13.08,0,0,1-2.65-11,15,15,0,0,0-29.37-6.11A43,43,0,0,0,88.66,392.18Zm170.49-179-3.15,0c-.93,0-1.86,0-2.8,0a64.56,64.56,0,1,1,5.95,0Z"/></g></g></svg>