<svg xmlns="http://www.w3.org/2000/svg" fill="#fff" viewBox="0 0 513 512"><title>Ресурс 1</title><g id="Слой_2" data-name="Слой 2"><g id="Capa_1" data-name="Capa 1"><path d="M367.57,256.91a259.16,259.16,0,0,0-30.09-12.08A135.88,135.88,0,0,0,392,136C392,61,331,0,256,0S120,61,120,136a135.91,135.91,0,0,0,54.63,108.91A260.14,260.14,0,0,0,1.3,438.72,60.76,60.76,0,0,0,60.69,512H307a20,20,0,0,0,0-40H60.69a20.32,20.32,0,0,1-16-7.61,20.86,20.86,0,0,1-4.23-17.51c20.75-99.7,108.69-172.53,210.24-175,1.76.07,3.52.1,5.3.1s3.58,0,5.35-.1a217.87,217.87,0,0,1,89,21.14,20,20,0,1,0,17.17-36.13Zm-106.69-25c-1.63,0-3.25,0-4.88,0s-3.23,0-4.84,0a96,96,0,1,1,9.72,0Z"/><path d="M136,283.56A20,20,0,0,0,162.6,293a217.87,217.87,0,0,1,89.05-21.14c1.77.06,3.56.1,5.35.1s3.54,0,5.3-.1c101.55,2.45,189.49,75.28,210.24,175a20.9,20.9,0,0,1-4.23,17.51,20.32,20.32,0,0,1-16,7.61H206a20,20,0,0,0,0,40H452.31a60.76,60.76,0,0,0,59.39-73.28A260.14,260.14,0,0,0,338.37,244.91,135.91,135.91,0,0,0,393,136C393,61,332,0,257,0S121,61,121,136a135.88,135.88,0,0,0,54.52,108.83,259.16,259.16,0,0,0-30.09,12.08A20,20,0,0,0,136,283.56ZM161,136a96,96,0,1,1,100.84,95.88c-1.61,0-3.23,0-4.84,0s-3.26,0-4.88,0A96.13,96.13,0,0,1,161,136Z"/></g></g></svg>